<svg version="1.1" xmlns="http://www.w3.org/2000/svg" xmlns:xlink="http://www.w3.org/1999/xlink" width="915.4189453125" height="562"><defs/><g><text fill="#eeeeee" stroke="none" font-family="Arial" font-size="24px" font-style="normal" font-weight="normal" text-decoration="none" x="0" y="0">UNREGISTERED</text><text fill="#eeeeee" stroke="none" font-family="Arial" font-size="24px" font-style="normal" font-weight="normal" text-decoration="none" x="0" y="30">UNREGISTERED</text><text fill="#eeeeee" stroke="none" font-family="Arial" font-size="24px" font-style="normal" font-weight="normal" text-decoration="none" x="0" y="60">UNREGISTERED</text><text fill="#eeeeee" stroke="none" font-family="Arial" font-size="24px" font-style="normal" font-weight="normal" text-decoration="none" x="0" y="90">UNREGISTERED</text><text fill="#eeeeee" stroke="none" font-family="Arial" font-size="24px" font-style="normal" font-weight="normal" text-decoration="none" x="0" y="120">UNREGISTERED</text><text fill="#eeeeee" stroke="none" font-family="Arial" font-size="24px" font-style="normal" font-weight="normal" text-decoration="none" x="0" y="150">UNREGISTERED</text><text fill="#eeeeee" stroke="none" font-family="Arial" font-size="24px" font-style="normal" font-weight="normal" text-decoration="none" x="0" y="180">UNREGISTERED</text><text fill="#eeeeee" stroke="none" font-family="Arial" font-size="24px" font-style="normal" font-weight="normal" text-decoration="none" x="0" y="210">UNREGISTERED</text><text fill="#eeeeee" stroke="none" font-family="Arial" font-size="24px" font-style="normal" font-weight="normal" text-decoration="none" x="0" y="240">UNREGISTERED</text><text fill="#eeeeee" stroke="none" font-family="Arial" font-size="24px" font-style="normal" font-weight="normal" text-decoration="none" x="0" y="270">UNREGISTERED</text><text fill="#eeeeee" stroke="none" font-family="Arial" font-size="24px" font-style="normal" font-weight="normal" text-decoration="none" x="0" y="300">UNREGISTERED</text><text fill="#eeeeee" stroke="none" font-family="Arial" font-size="24px" font-style="normal" font-weight="normal" text-decoration="none" x="0" y="330">UNREGISTERED</text><text fill="#eeeeee" stroke="none" font-family="Arial" font-size="24px" font-style="normal" font-weight="normal" text-decoration="none" x="0" y="360">UNREGISTERED</text><text fill="#eeeeee" stroke="none" font-family="Arial" font-size="24px" font-style="normal" font-weight="normal" text-decoration="none" x="0" y="390">UNREGISTERED</text><text fill="#eeeeee" stroke="none" font-family="Arial" font-size="24px" font-style="normal" font-weight="normal" text-decoration="none" x="0" y="420">UNREGISTERED</text><text fill="#eeeeee" stroke="none" font-family="Arial" font-size="24px" font-style="normal" font-weight="normal" text-decoration="none" x="0" y="450">UNREGISTERED</text><text fill="#eeeeee" stroke="none" font-family="Arial" font-size="24px" font-style="normal" font-weight="normal" text-decoration="none" x="0" y="480">UNREGISTERED</text><text fill="#eeeeee" stroke="none" font-family="Arial" font-size="24px" font-style="normal" font-weight="normal" text-decoration="none" x="0" y="510">UNREGISTERED</text><text fill="#eeeeee" stroke="none" font-family="Arial" font-size="24px" font-style="normal" font-weight="normal" text-decoration="none" x="0" y="540">UNREGISTERED</text><text fill="#eeeeee" stroke="none" font-family="Arial" font-size="24px" font-style="normal" font-weight="normal" text-decoration="none" x="200" y="0">UNREGISTERED</text><text fill="#eeeeee" stroke="none" font-family="Arial" font-size="24px" font-style="normal" font-weight="normal" text-decoration="none" x="200" y="30">UNREGISTERED</text><text fill="#eeeeee" stroke="none" font-family="Arial" font-size="24px" font-style="normal" font-weight="normal" text-decoration="none" x="200" y="60">UNREGISTERED</text><text fill="#eeeeee" stroke="none" font-family="Arial" font-size="24px" font-style="normal" font-weight="normal" text-decoration="none" x="200" y="90">UNREGISTERED</text><text fill="#eeeeee" stroke="none" font-family="Arial" font-size="24px" font-style="normal" font-weight="normal" text-decoration="none" x="200" y="120">UNREGISTERED</text><text fill="#eeeeee" stroke="none" font-family="Arial" font-size="24px" font-style="normal" font-weight="normal" text-decoration="none" x="200" y="150">UNREGISTERED</text><text fill="#eeeeee" stroke="none" font-family="Arial" font-size="24px" font-style="normal" font-weight="normal" text-decoration="none" x="200" y="180">UNREGISTERED</text><text fill="#eeeeee" stroke="none" font-family="Arial" font-size="24px" font-style="normal" font-weight="normal" text-decoration="none" x="200" y="210">UNREGISTERED</text><text fill="#eeeeee" stroke="none" font-family="Arial" font-size="24px" font-style="normal" font-weight="normal" text-decoration="none" x="200" y="240">UNREGISTERED</text><text fill="#eeeeee" stroke="none" font-family="Arial" font-size="24px" font-style="normal" font-weight="normal" text-decoration="none" x="200" y="270">UNREGISTERED</text><text fill="#eeeeee" stroke="none" font-family="Arial" font-size="24px" font-style="normal" font-weight="normal" text-decoration="none" x="200" y="300">UNREGISTERED</text><text fill="#eeeeee" stroke="none" font-family="Arial" font-size="24px" font-style="normal" font-weight="normal" text-decoration="none" x="200" y="330">UNREGISTERED</text><text fill="#eeeeee" stroke="none" font-family="Arial" font-size="24px" font-style="normal" font-weight="normal" text-decoration="none" x="200" y="360">UNREGISTERED</text><text fill="#eeeeee" stroke="none" font-family="Arial" font-size="24px" font-style="normal" font-weight="normal" text-decoration="none" x="200" y="390">UNREGISTERED</text><text fill="#eeeeee" stroke="none" font-family="Arial" font-size="24px" font-style="normal" font-weight="normal" text-decoration="none" x="200" y="420">UNREGISTERED</text><text fill="#eeeeee" stroke="none" font-family="Arial" font-size="24px" font-style="normal" font-weight="normal" text-decoration="none" x="200" y="450">UNREGISTERED</text><text fill="#eeeeee" stroke="none" font-family="Arial" font-size="24px" font-style="normal" font-weight="normal" text-decoration="none" x="200" y="480">UNREGISTERED</text><text fill="#eeeeee" stroke="none" font-family="Arial" font-size="24px" font-style="normal" font-weight="normal" text-decoration="none" x="200" y="510">UNREGISTERED</text><text fill="#eeeeee" stroke="none" font-family="Arial" font-size="24px" font-style="normal" font-weight="normal" text-decoration="none" x="200" y="540">UNREGISTERED</text><text fill="#eeeeee" stroke="none" font-family="Arial" font-size="24px" font-style="normal" font-weight="normal" text-decoration="none" x="400" y="0">UNREGISTERED</text><text fill="#eeeeee" stroke="none" font-family="Arial" font-size="24px" font-style="normal" font-weight="normal" text-decoration="none" x="400" y="30">UNREGISTERED</text><text fill="#eeeeee" stroke="none" font-family="Arial" font-size="24px" font-style="normal" font-weight="normal" text-decoration="none" x="400" y="60">UNREGISTERED</text><text fill="#eeeeee" stroke="none" font-family="Arial" font-size="24px" font-style="normal" font-weight="normal" text-decoration="none" x="400" y="90">UNREGISTERED</text><text fill="#eeeeee" stroke="none" font-family="Arial" font-size="24px" font-style="normal" font-weight="normal" text-decoration="none" x="400" y="120">UNREGISTERED</text><text fill="#eeeeee" stroke="none" font-family="Arial" font-size="24px" font-style="normal" font-weight="normal" text-decoration="none" x="400" y="150">UNREGISTERED</text><text fill="#eeeeee" stroke="none" font-family="Arial" font-size="24px" font-style="normal" font-weight="normal" text-decoration="none" x="400" y="180">UNREGISTERED</text><text fill="#eeeeee" stroke="none" font-family="Arial" font-size="24px" font-style="normal" font-weight="normal" text-decoration="none" x="400" y="210">UNREGISTERED</text><text fill="#eeeeee" stroke="none" font-family="Arial" font-size="24px" font-style="normal" font-weight="normal" text-decoration="none" x="400" y="240">UNREGISTERED</text><text fill="#eeeeee" stroke="none" font-family="Arial" font-size="24px" font-style="normal" font-weight="normal" text-decoration="none" x="400" y="270">UNREGISTERED</text><text fill="#eeeeee" stroke="none" font-family="Arial" font-size="24px" font-style="normal" font-weight="normal" text-decoration="none" x="400" y="300">UNREGISTERED</text><text fill="#eeeeee" stroke="none" font-family="Arial" font-size="24px" font-style="normal" font-weight="normal" text-decoration="none" x="400" y="330">UNREGISTERED</text><text fill="#eeeeee" stroke="none" font-family="Arial" font-size="24px" font-style="normal" font-weight="normal" text-decoration="none" x="400" y="360">UNREGISTERED</text><text fill="#eeeeee" stroke="none" font-family="Arial" font-size="24px" font-style="normal" font-weight="normal" text-decoration="none" x="400" y="390">UNREGISTERED</text><text fill="#eeeeee" stroke="none" font-family="Arial" font-size="24px" font-style="normal" font-weight="normal" text-decoration="none" x="400" y="420">UNREGISTERED</text><text fill="#eeeeee" stroke="none" font-family="Arial" font-size="24px" font-style="normal" font-weight="normal" text-decoration="none" x="400" y="450">UNREGISTERED</text><text fill="#eeeeee" stroke="none" font-family="Arial" font-size="24px" font-style="normal" font-weight="normal" text-decoration="none" x="400" y="480">UNREGISTERED</text><text fill="#eeeeee" stroke="none" font-family="Arial" font-size="24px" font-style="normal" font-weight="normal" text-decoration="none" x="400" y="510">UNREGISTERED</text><text fill="#eeeeee" stroke="none" font-family="Arial" font-size="24px" font-style="normal" font-weight="normal" text-decoration="none" x="400" y="540">UNREGISTERED</text><text fill="#eeeeee" stroke="none" font-family="Arial" font-size="24px" font-style="normal" font-weight="normal" text-decoration="none" x="600" y="0">UNREGISTERED</text><text fill="#eeeeee" stroke="none" font-family="Arial" font-size="24px" font-style="normal" font-weight="normal" text-decoration="none" x="600" y="30">UNREGISTERED</text><text fill="#eeeeee" stroke="none" font-family="Arial" font-size="24px" font-style="normal" font-weight="normal" text-decoration="none" x="600" y="60">UNREGISTERED</text><text fill="#eeeeee" stroke="none" font-family="Arial" font-size="24px" font-style="normal" font-weight="normal" text-decoration="none" x="600" y="90">UNREGISTERED</text><text fill="#eeeeee" stroke="none" font-family="Arial" font-size="24px" font-style="normal" font-weight="normal" text-decoration="none" x="600" y="120">UNREGISTERED</text><text fill="#eeeeee" stroke="none" font-family="Arial" font-size="24px" font-style="normal" font-weight="normal" text-decoration="none" x="600" y="150">UNREGISTERED</text><text fill="#eeeeee" stroke="none" font-family="Arial" font-size="24px" font-style="normal" font-weight="normal" text-decoration="none" x="600" y="180">UNREGISTERED</text><text fill="#eeeeee" stroke="none" font-family="Arial" font-size="24px" font-style="normal" font-weight="normal" text-decoration="none" x="600" y="210">UNREGISTERED</text><text fill="#eeeeee" stroke="none" font-family="Arial" font-size="24px" font-style="normal" font-weight="normal" text-decoration="none" x="600" y="240">UNREGISTERED</text><text fill="#eeeeee" stroke="none" font-family="Arial" font-size="24px" font-style="normal" font-weight="normal" text-decoration="none" x="600" y="270">UNREGISTERED</text><text fill="#eeeeee" stroke="none" font-family="Arial" font-size="24px" font-style="normal" font-weight="normal" text-decoration="none" x="600" y="300">UNREGISTERED</text><text fill="#eeeeee" stroke="none" font-family="Arial" font-size="24px" font-style="normal" font-weight="normal" text-decoration="none" x="600" y="330">UNREGISTERED</text><text fill="#eeeeee" stroke="none" font-family="Arial" font-size="24px" font-style="normal" font-weight="normal" text-decoration="none" x="600" y="360">UNREGISTERED</text><text fill="#eeeeee" stroke="none" font-family="Arial" font-size="24px" font-style="normal" font-weight="normal" text-decoration="none" x="600" y="390">UNREGISTERED</text><text fill="#eeeeee" stroke="none" font-family="Arial" font-size="24px" font-style="normal" font-weight="normal" text-decoration="none" x="600" y="420">UNREGISTERED</text><text fill="#eeeeee" stroke="none" font-family="Arial" font-size="24px" font-style="normal" font-weight="normal" text-decoration="none" x="600" y="450">UNREGISTERED</text><text fill="#eeeeee" stroke="none" font-family="Arial" font-size="24px" font-style="normal" font-weight="normal" text-decoration="none" x="600" y="480">UNREGISTERED</text><text fill="#eeeeee" stroke="none" font-family="Arial" font-size="24px" font-style="normal" font-weight="normal" text-decoration="none" x="600" y="510">UNREGISTERED</text><text fill="#eeeeee" stroke="none" font-family="Arial" font-size="24px" font-style="normal" font-weight="normal" text-decoration="none" x="600" y="540">UNREGISTERED</text><text fill="#eeeeee" stroke="none" font-family="Arial" font-size="24px" font-style="normal" font-weight="normal" text-decoration="none" x="800" y="0">UNREGISTERED</text><text fill="#eeeeee" stroke="none" font-family="Arial" font-size="24px" font-style="normal" font-weight="normal" text-decoration="none" x="800" y="30">UNREGISTERED</text><text fill="#eeeeee" stroke="none" font-family="Arial" font-size="24px" font-style="normal" font-weight="normal" text-decoration="none" x="800" y="60">UNREGISTERED</text><text fill="#eeeeee" stroke="none" font-family="Arial" font-size="24px" font-style="normal" font-weight="normal" text-decoration="none" x="800" y="90">UNREGISTERED</text><text fill="#eeeeee" stroke="none" font-family="Arial" font-size="24px" font-style="normal" font-weight="normal" text-decoration="none" x="800" y="120">UNREGISTERED</text><text fill="#eeeeee" stroke="none" font-family="Arial" font-size="24px" font-style="normal" font-weight="normal" text-decoration="none" x="800" y="150">UNREGISTERED</text><text fill="#eeeeee" stroke="none" font-family="Arial" font-size="24px" font-style="normal" font-weight="normal" text-decoration="none" x="800" y="180">UNREGISTERED</text><text fill="#eeeeee" stroke="none" font-family="Arial" font-size="24px" font-style="normal" font-weight="normal" text-decoration="none" x="800" y="210">UNREGISTERED</text><text fill="#eeeeee" stroke="none" font-family="Arial" font-size="24px" font-style="normal" font-weight="normal" text-decoration="none" x="800" y="240">UNREGISTERED</text><text fill="#eeeeee" stroke="none" font-family="Arial" font-size="24px" font-style="normal" font-weight="normal" text-decoration="none" x="800" y="270">UNREGISTERED</text><text fill="#eeeeee" stroke="none" font-family="Arial" font-size="24px" font-style="normal" font-weight="normal" text-decoration="none" x="800" y="300">UNREGISTERED</text><text fill="#eeeeee" stroke="none" font-family="Arial" font-size="24px" font-style="normal" font-weight="normal" text-decoration="none" x="800" y="330">UNREGISTERED</text><text fill="#eeeeee" stroke="none" font-family="Arial" font-size="24px" font-style="normal" font-weight="normal" text-decoration="none" x="800" y="360">UNREGISTERED</text><text fill="#eeeeee" stroke="none" font-family="Arial" font-size="24px" font-style="normal" font-weight="normal" text-decoration="none" x="800" y="390">UNREGISTERED</text><text fill="#eeeeee" stroke="none" font-family="Arial" font-size="24px" font-style="normal" font-weight="normal" text-decoration="none" x="800" y="420">UNREGISTERED</text><text fill="#eeeeee" stroke="none" font-family="Arial" font-size="24px" font-style="normal" font-weight="normal" text-decoration="none" x="800" y="450">UNREGISTERED</text><text fill="#eeeeee" stroke="none" font-family="Arial" font-size="24px" font-style="normal" font-weight="normal" text-decoration="none" x="800" y="480">UNREGISTERED</text><text fill="#eeeeee" stroke="none" font-family="Arial" font-size="24px" font-style="normal" font-weight="normal" text-decoration="none" x="800" y="510">UNREGISTERED</text><text fill="#eeeeee" stroke="none" font-family="Arial" font-size="24px" font-style="normal" font-weight="normal" text-decoration="none" x="800" y="540">UNREGISTERED</text><g transform="translate(-22,-182) scale(1,1)"><rect fill="#C0C0C0" stroke="none" x="463" y="455" width="104" height="80" opacity="0.2"/></g><g transform="translate(-22,-182) scale(1,1)"><rect fill="#ffffff" stroke="none" x="456" y="448" width="104" height="80"/></g><g transform="translate(-22,-182) scale(1,1)"><path fill="none" stroke="#000000" d="M 456 448 L 560 448 L 560 528 L 456 528 L 456 448 Z Z" stroke-miterlimit="10"/></g><g transform="translate(-22,-182) scale(1,1)"><path fill="none" stroke="#000000" d="M 456 473 L 560 473" stroke-miterlimit="10"/></g><g transform="translate(-22,-182) scale(1,1)"><path fill="none" stroke="#000000" d="M 456 496 L 560 496" stroke-miterlimit="10"/></g><g transform="translate(-22,-182) scale(1,1)"><g><path fill="none" stroke="none"/><text fill="#000000" stroke="none" font-family="Arial" font-size="13px" font-style="normal" font-weight="bold" text-decoration="none" x="481.99365234375" y="466">Médecin</text></g></g><g transform="translate(-22,-182) scale(1,1)"><g><path fill="none" stroke="none"/><text fill="#000000" stroke="none" font-family="Arial" font-size="13px" font-style="normal" font-weight="normal" text-decoration="none" x="461" y="488.5">+poste</text></g></g><g transform="translate(-22,-182) scale(1,1)"><rect fill="#C0C0C0" stroke="none" x="679" y="383" width="152" height="112" opacity="0.2"/></g><g transform="translate(-22,-182) scale(1,1)"><rect fill="#ffffff" stroke="none" x="672" y="376" width="152" height="112"/></g><g transform="translate(-22,-182) scale(1,1)"><path fill="none" stroke="#000000" d="M 672 376 L 824 376 L 824 488 L 672 488 L 672 376 Z Z" stroke-miterlimit="10"/></g><g transform="translate(-22,-182) scale(1,1)"><path fill="none" stroke="#000000" d="M 672 401 L 824 401" stroke-miterlimit="10"/></g><g transform="translate(-22,-182) scale(1,1)"><path fill="none" stroke="#000000" d="M 672 411 L 824 411" stroke-miterlimit="10"/></g><g transform="translate(-22,-182) scale(1,1)"><g><path fill="none" stroke="none"/><text fill="#000000" stroke="none" font-family="Arial" font-size="13px" font-style="normal" font-weight="bold" text-decoration="none" x="723.80908203125" y="394">Abonné</text></g></g><g transform="translate(-22,-182) scale(1,1)"><rect fill="#C0C0C0" stroke="none" x="575" y="591" width="89.57080078125" height="100" opacity="0.2"/></g><g transform="translate(-22,-182) scale(1,1)"><rect fill="#ffffff" stroke="none" x="568" y="584" width="89.57080078125" height="100"/></g><g transform="translate(-22,-182) scale(1,1)"><path fill="none" stroke="#000000" d="M 568 584 L 657.57080078125 584 L 657.57080078125 684 L 568 684 L 568 584 Z Z" stroke-miterlimit="10"/></g><g transform="translate(-22,-182) scale(1,1)"><path fill="none" stroke="#000000" d="M 568 609 L 657.57080078125 609" stroke-miterlimit="10"/></g><g transform="translate(-22,-182) scale(1,1)"><path fill="none" stroke="#000000" d="M 568 662 L 657.57080078125 662" stroke-miterlimit="10"/></g><g transform="translate(-22,-182) scale(1,1)"><g><path fill="none" stroke="none"/><text fill="#000000" stroke="none" font-family="Arial" font-size="13px" font-style="normal" font-weight="bold" text-decoration="none" x="584.255859375" y="602">Adhérant</text></g></g><g transform="translate(-22,-182) scale(1,1)"><g><path fill="none" stroke="none"/><text fill="#000000" stroke="none" font-family="Arial" font-size="13px" font-style="normal" font-weight="normal" text-decoration="none" x="573" y="625">-id_adherant</text></g></g><g transform="translate(-22,-182) scale(1,1)"><g><path fill="none" stroke="none"/><text fill="#000000" stroke="none" font-family="Arial" font-size="13px" font-style="normal" font-weight="normal" text-decoration="none" x="573" y="639">+username</text></g></g><g transform="translate(-22,-182) scale(1,1)"><g><path fill="none" stroke="none"/><text fill="#000000" stroke="none" font-family="Arial" font-size="13px" font-style="normal" font-weight="normal" text-decoration="none" x="573" y="655">-password</text></g></g><g transform="translate(-22,-182) scale(1,1)"><rect fill="#C0C0C0" stroke="none" x="39" y="255" width="89.57080078125" height="87" opacity="0.2"/></g><g transform="translate(-22,-182) scale(1,1)"><rect fill="#ffffff" stroke="none" x="32" y="248" width="89.57080078125" height="87"/></g><g transform="translate(-22,-182) scale(1,1)"><path fill="none" stroke="#000000" d="M 32 248 L 121.57080078125 248 L 121.57080078125 335 L 32 335 L 32 248 Z Z" stroke-miterlimit="10"/></g><g transform="translate(-22,-182) scale(1,1)"><path fill="none" stroke="#000000" d="M 32 273 L 121.57080078125 273" stroke-miterlimit="10"/></g><g transform="translate(-22,-182) scale(1,1)"><path fill="none" stroke="#000000" d="M 32 311 L 121.57080078125 311" stroke-miterlimit="10"/></g><g transform="translate(-22,-182) scale(1,1)"><g><path fill="none" stroke="none"/><text fill="#000000" stroke="none" font-family="Arial" font-size="13px" font-style="normal" font-weight="bold" text-decoration="none" x="39.219970703125" y="266">Médicament</text></g></g><g transform="translate(-22,-182) scale(1,1)"><g><path fill="none" stroke="none"/><text fill="#000000" stroke="none" font-family="Arial" font-size="13px" font-style="normal" font-weight="normal" text-decoration="none" x="37" y="288">+nom</text></g></g><g transform="translate(-22,-182) scale(1,1)"><g><path fill="none" stroke="none"/><text fill="#000000" stroke="none" font-family="Arial" font-size="13px" font-style="normal" font-weight="normal" text-decoration="none" x="37" y="304">+stock</text></g></g><g transform="translate(-22,-182) scale(1,1)"><g><path fill="none" stroke="none"/><text fill="#000000" stroke="none" font-family="Arial" font-size="13px" font-style="normal" font-weight="normal" text-decoration="none" x="37" y="327">+Disponible()</text></g></g><g transform="translate(-22,-182) scale(1,1)"><rect fill="#C0C0C0" stroke="none" x="135" y="639" width="97.1435546875" height="102" opacity="0.2"/></g><g transform="translate(-22,-182) scale(1,1)"><rect fill="#ffffff" stroke="none" x="128" y="632" width="97.1435546875" height="102"/></g><g transform="translate(-22,-182) scale(1,1)"><path fill="none" stroke="#000000" d="M 128 632 L 225.1435546875 632 L 225.1435546875 734 L 128 734 L 128 632 Z Z" stroke-miterlimit="10"/></g><g transform="translate(-22,-182) scale(1,1)"><path fill="none" stroke="#000000" d="M 128 657 L 225.1435546875 657" stroke-miterlimit="10"/></g><g transform="translate(-22,-182) scale(1,1)"><path fill="none" stroke="#000000" d="M 128 725 L 225.1435546875 725" stroke-miterlimit="10"/></g><g transform="translate(-22,-182) scale(1,1)"><g><path fill="none" stroke="none"/><text fill="#000000" stroke="none" font-family="Arial" font-size="13px" font-style="normal" font-weight="bold" text-decoration="none" x="132.5" y="650">Etablissement</text></g></g><g transform="translate(-22,-182) scale(1,1)"><g><path fill="none" stroke="none"/><text fill="#000000" stroke="none" font-family="Arial" font-size="13px" font-style="normal" font-weight="normal" text-decoration="none" x="133" y="672">+nom</text></g></g><g transform="translate(-22,-182) scale(1,1)"><g><path fill="none" stroke="none"/><text fill="#000000" stroke="none" font-family="Arial" font-size="13px" font-style="normal" font-weight="normal" text-decoration="none" x="133" y="687.5">+type</text></g></g><g transform="translate(-22,-182) scale(1,1)"><g><path fill="none" stroke="none"/><text fill="#000000" stroke="none" font-family="Arial" font-size="13px" font-style="normal" font-weight="normal" text-decoration="none" x="133" y="703">+tel</text></g></g><g transform="translate(-22,-182) scale(1,1)"><g><path fill="none" stroke="none"/><text fill="#000000" stroke="none" font-family="Arial" font-size="13px" font-style="normal" font-weight="normal" text-decoration="none" x="133" y="718">+localisation</text></g></g><g transform="translate(-22,-182) scale(1,1)"><rect fill="#C0C0C0" stroke="none" x="47" y="463" width="74.76171875" height="44" opacity="0.2"/></g><g transform="translate(-22,-182) scale(1,1)"><rect fill="#ffffff" stroke="none" x="40" y="456" width="74.76171875" height="44"/></g><g transform="translate(-22,-182) scale(1,1)"><path fill="none" stroke="#000000" d="M 40 456 L 114.76171875 456 L 114.76171875 500 L 40 500 L 40 456 Z Z" stroke-miterlimit="10"/></g><g transform="translate(-22,-182) scale(1,1)"><path fill="none" stroke="#000000" d="M 40 481 L 114.76171875 481" stroke-miterlimit="10"/></g><g transform="translate(-22,-182) scale(1,1)"><path fill="none" stroke="#000000" d="M 40 491 L 114.76171875 491" stroke-miterlimit="10"/></g><g transform="translate(-22,-182) scale(1,1)"><g><path fill="none" stroke="none"/><text fill="#000000" stroke="none" font-family="Arial" font-size="13px" font-style="normal" font-weight="bold" text-decoration="none" x="44.5" y="474">Pharmacie</text></g></g><g transform="translate(-22,-182) scale(1,1)"><rect fill="#C0C0C0" stroke="none" x="223" y="463" width="53.052734375" height="44" opacity="0.2"/></g><g transform="translate(-22,-182) scale(1,1)"><rect fill="#ffffff" stroke="none" x="216" y="456" width="53.052734375" height="44"/></g><g transform="translate(-22,-182) scale(1,1)"><path fill="none" stroke="#000000" d="M 216 456 L 269.052734375 456 L 269.052734375 500 L 216 500 L 216 456 Z Z" stroke-miterlimit="10"/></g><g transform="translate(-22,-182) scale(1,1)"><path fill="none" stroke="#000000" d="M 216 481 L 269.052734375 481" stroke-miterlimit="10"/></g><g transform="translate(-22,-182) scale(1,1)"><path fill="none" stroke="#000000" d="M 216 491 L 269.052734375 491" stroke-miterlimit="10"/></g><g transform="translate(-22,-182) scale(1,1)"><g><path fill="none" stroke="none"/><text fill="#000000" stroke="none" font-family="Arial" font-size="13px" font-style="normal" font-weight="bold" text-decoration="none" x="220.5" y="474">Hôpital</text></g></g><g transform="translate(-22,-182) scale(1,1)"><rect fill="#C0C0C0" stroke="none" x="575" y="199" width="72.2353515625" height="72" opacity="0.2"/></g><g transform="translate(-22,-182) scale(1,1)"><rect fill="#ffffff" stroke="none" x="568" y="192" width="72.2353515625" height="72"/></g><g transform="translate(-22,-182) scale(1,1)"><path fill="none" stroke="#000000" d="M 568 192 L 640.2353515625 192 L 640.2353515625 264 L 568 264 L 568 192 Z Z" stroke-miterlimit="10"/></g><g transform="translate(-22,-182) scale(1,1)"><path fill="none" stroke="#000000" d="M 568 217 L 640.2353515625 217" stroke-miterlimit="10"/></g><g transform="translate(-22,-182) scale(1,1)"><path fill="none" stroke="#000000" d="M 568 255 L 640.2353515625 255" stroke-miterlimit="10"/></g><g transform="translate(-22,-182) scale(1,1)"><g><path fill="none" stroke="none"/><text fill="#000000" stroke="none" font-family="Arial" font-size="13px" font-style="normal" font-weight="bold" text-decoration="none" x="591.838134765625" y="210">Rdv</text></g></g><g transform="translate(-22,-182) scale(1,1)"><g><path fill="none" stroke="none"/><text fill="#000000" stroke="none" font-family="Arial" font-size="13px" font-style="normal" font-weight="normal" text-decoration="none" x="573" y="233">+date</text></g></g><g transform="translate(-22,-182) scale(1,1)"><g><path fill="none" stroke="none"/><text fill="#000000" stroke="none" font-family="Arial" font-size="13px" font-style="normal" font-weight="normal" text-decoration="none" x="573" y="248">+heure1</text></g></g><g transform="translate(-22,-182) scale(1,1)"><path fill="none" stroke="#000000" d="M 537 529 L 576 583" stroke-miterlimit="10"/></g><g transform="translate(-22,-182) scale(1,1)"><path fill="#FFFFFF" stroke="none" d="M 557.2745625253738 571.4519269406596 L 576 583 L 570.9248369509043 561.5933954111099"/></g><g transform="translate(-22,-182) scale(1,1)"><path fill="none" stroke="#000000" d="M 557.2745625253738 571.4519269406596 L 576 583 L 570.9248369509043 561.5933954111099 L 557.2745625253738 571.4519269406596" stroke-miterlimit="10"/></g><g transform="translate(-22,-182) scale(1,1)"><path fill="none" stroke="#000000" d="M 710 489 L 646 583" stroke-miterlimit="10"/></g><g transform="translate(-22,-182) scale(1,1)"><path fill="#FFFFFF" stroke="none" d="M 650.4797550061058 561.4609239964833 L 646 583 L 664.398091845451 570.9372384402927"/></g><g transform="translate(-22,-182) scale(1,1)"><path fill="none" stroke="#000000" d="M 650.4797550061058 561.4609239964833 L 646 583 L 664.398091845451 570.9372384402927 L 650.4797550061058 561.4609239964833" stroke-miterlimit="10"/></g><g transform="translate(-22,-182) scale(1,1)"><path fill="none" stroke="#000000" d="M 77 455 L 76 336" stroke-miterlimit="10"/></g><g transform="translate(-22,-182) scale(1,1)"><g><path fill="none" stroke="none"/><text fill="#000000" stroke="none" font-family="Arial" font-size="13px" font-style="normal" font-weight="normal" text-decoration="none" x="43.5" y="399">+avoir</text></g></g><g transform="translate(-22,-182) scale(1,1)"><g><path fill="none" stroke="none"/><text fill="#000000" stroke="none" font-family="Arial" font-size="13px" font-style="normal" font-weight="normal" text-decoration="none" x="79.5" y="438">0..*</text></g></g><g transform="translate(-22,-182) scale(1,1)"><g><path fill="none" stroke="none"/><text fill="#000000" stroke="none" font-family="Arial" font-size="13px" font-style="normal" font-weight="normal" text-decoration="none" x="78.5" y="362">0..*</text></g></g><g transform="translate(-22,-182) scale(1,1)"><path fill="none" stroke="#000000" d="M 235 501 L 193 631" stroke-miterlimit="10"/></g><g transform="translate(-22,-182) scale(1,1)"><path fill="#FFFFFF" stroke="none" d="M 191.23732588911164 609.0707277827374 L 193 631 L 207.259938274481 614.2472640918568"/></g><g transform="translate(-22,-182) scale(1,1)"><path fill="none" stroke="#000000" d="M 191.23732588911164 609.0707277827374 L 193 631 L 207.259938274481 614.2472640918568 L 191.23732588911164 609.0707277827374" stroke-miterlimit="10"/></g><g transform="translate(-22,-182) scale(1,1)"><path fill="none" stroke="#000000" d="M 88 501 L 151 631" stroke-miterlimit="10"/></g><g transform="translate(-22,-182) scale(1,1)"><path fill="#FFFFFF" stroke="none" d="M 134.55978056200385 616.3808623773311 L 151 631 L 149.71230069928657 609.0377180031095"/></g><g transform="translate(-22,-182) scale(1,1)"><path fill="none" stroke="#000000" d="M 134.55978056200385 616.3808623773311 L 151 631 L 149.71230069928657 609.0377180031095 L 134.55978056200385 616.3808623773311" stroke-miterlimit="10"/></g><g transform="translate(-22,-182) scale(1,1)"><path fill="none" stroke="#000000" d="M 523 447 L 590 265" stroke-miterlimit="10"/></g><g transform="translate(-22,-182) scale(1,1)"><g><path fill="none" stroke="none"/><text fill="#000000" stroke="none" font-family="Arial" font-size="13px" font-style="normal" font-weight="normal" text-decoration="none" x="509.5" y="355">+donner rv</text></g></g><g transform="translate(-22,-182) scale(1,1)"><g><path fill="none" stroke="none"/><text fill="#000000" stroke="none" font-family="Arial" font-size="13px" font-style="normal" font-weight="normal" text-decoration="none" x="538.5" y="436">1</text></g></g><g transform="translate(-22,-182) scale(1,1)"><g><path fill="none" stroke="none"/><text fill="#000000" stroke="none" font-family="Arial" font-size="13px" font-style="normal" font-weight="normal" text-decoration="none" x="584.5" y="294">0..*</text></g></g><g transform="translate(-22,-182) scale(1,1)"><path fill="none" stroke="#000000" d="M 708 375 L 630 265" stroke-miterlimit="10"/></g><g transform="translate(-22,-182) scale(1,1)"><g><path fill="none" stroke="none"/><text fill="#000000" stroke="none" font-family="Arial" font-size="13px" font-style="normal" font-weight="normal" text-decoration="none" x="615.5" y="333">+demander rv</text></g></g><g transform="translate(-22,-182) scale(1,1)"><g><path fill="none" stroke="none"/><text fill="#000000" stroke="none" font-family="Arial" font-size="13px" font-style="normal" font-weight="normal" text-decoration="none" x="701.5" y="355">1</text></g></g><g transform="translate(-22,-182) scale(1,1)"><g><path fill="none" stroke="none"/><text fill="#000000" stroke="none" font-family="Arial" font-size="13px" font-style="normal" font-weight="normal" text-decoration="none" x="642.5" y="280">0..*</text></g></g><g transform="translate(-22,-182) scale(1,1)"><path fill="none" stroke="#000000" d="M 270 479 L 455 486" stroke-miterlimit="10"/></g><g transform="translate(-22,-182) scale(1,1)"><g><path fill="none" stroke="none"/><text fill="#000000" stroke="none" font-family="Arial" font-size="13px" font-style="normal" font-weight="normal" text-decoration="none" x="333.5" y="472">+travailler</text></g></g><g transform="translate(-22,-182) scale(1,1)"><g><path fill="none" stroke="none"/><text fill="#000000" stroke="none" font-family="Arial" font-size="13px" font-style="normal" font-weight="normal" text-decoration="none" x="280.5" y="497">0..1</text></g></g><g transform="translate(-22,-182) scale(1,1)"><g><path fill="none" stroke="none"/><text fill="#000000" stroke="none" font-family="Arial" font-size="13px" font-style="normal" font-weight="normal" text-decoration="none" x="422.5" y="502">1..*</text></g></g><g transform="translate(-22,-182) scale(1,1)"><rect fill="#C0C0C0" stroke="none" x="847" y="631" width="87.4189453125" height="87" opacity="0.2"/></g><g transform="translate(-22,-182) scale(1,1)"><rect fill="#ffffff" stroke="none" x="840" y="624" width="87.4189453125" height="87"/></g><g transform="translate(-22,-182) scale(1,1)"><path fill="none" stroke="#000000" d="M 840 624 L 927.4189453125 624 L 927.4189453125 711 L 840 711 L 840 624 Z Z" stroke-miterlimit="10"/></g><g transform="translate(-22,-182) scale(1,1)"><path fill="none" stroke="#000000" d="M 840 649 L 927.4189453125 649" stroke-miterlimit="10"/></g><g transform="translate(-22,-182) scale(1,1)"><path fill="none" stroke="#000000" d="M 840 702 L 927.4189453125 702" stroke-miterlimit="10"/></g><g transform="translate(-22,-182) scale(1,1)"><g><path fill="none" stroke="none"/><text fill="#000000" stroke="none" font-family="Arial" font-size="13px" font-style="normal" font-weight="bold" text-decoration="none" x="856.24951171875" y="642">Message</text></g></g><g transform="translate(-22,-182) scale(1,1)"><g><path fill="none" stroke="none"/><text fill="#000000" stroke="none" font-family="Arial" font-size="13px" font-style="normal" font-weight="normal" text-decoration="none" x="845" y="665">+id_adhérant</text></g></g><g transform="translate(-22,-182) scale(1,1)"><g><path fill="none" stroke="none"/><text fill="#000000" stroke="none" font-family="Arial" font-size="13px" font-style="normal" font-weight="normal" text-decoration="none" x="845" y="680">+id_mesage</text></g></g><g transform="translate(-22,-182) scale(1,1)"><g><path fill="none" stroke="none"/><text fill="#000000" stroke="none" font-family="Arial" font-size="13px" font-style="normal" font-weight="normal" text-decoration="none" x="845" y="694">+message</text></g></g><g transform="translate(-22,-182) scale(1,1)"><path fill="none" stroke="#000000" d="M 659 640 L 839 662" stroke-miterlimit="10"/></g><g transform="translate(-22,-182) scale(1,1)"><g><path fill="none" stroke="none"/><text fill="#000000" stroke="none" font-family="Arial" font-size="13px" font-style="normal" font-weight="normal" text-decoration="none" x="723.5" y="640">+envoyer</text></g></g><g transform="translate(-22,-182) scale(1,1)"><g><path fill="none" stroke="none"/><text fill="#000000" stroke="none" font-family="Arial" font-size="13px" font-style="normal" font-weight="normal" text-decoration="none" x="674.5" y="660">1</text></g></g><g transform="translate(-22,-182) scale(1,1)"><g><path fill="none" stroke="none"/><text fill="#000000" stroke="none" font-family="Arial" font-size="13px" font-style="normal" font-weight="normal" text-decoration="none" x="805.5" y="676">0..*</text></g></g></g></svg>